<svg xmlns="http://www.w3.org/2000/svg" viewBox="0 0 29.37 29.37"><path d="M15.82,4.76a7.49,7.49,0,0,1,2,.28c3.1.9,5.67,4.12,6.25,7.83a10.18,10.18,0,0,1-3.19,9,10.76,10.76,0,0,1-7,2.69,8.43,8.43,0,0,1-4.82-1.45,9.45,9.45,0,0,1-3.74-8.86C6,9.25,11,4.78,15.77,4.78m0-2C10,2.78,4.14,8,3.33,14A11.51,11.51,0,0,0,7.87,24.82a10.35,10.35,0,0,0,6,1.8,12.74,12.74,0,0,0,8.34-3.2,12.14,12.14,0,0,0,3.84-10.84c-.65-4.14-3.51-8.24-7.67-9.44a9.22,9.22,0,0,0-2.56-.38Z" style="fill:#eab99d"/><rect width="29.37" height="29.37" style="fill:none"/></svg>