<svg xmlns="http://www.w3.org/2000/svg" viewBox="0 0 58.74 29.37"><path d="M13.14,57.71a11.5,11.5,0,0,0,4.54,10.84c4.48,3.1,10.59,1.92,14.29-1.4a12.17,12.17,0,0,0,3.84-10.84c-.65-4.14-3.51-8.24-7.67-9.44C21.6,45,14.07,50.88,13.14,57.71Z" transform="translate(-9.81 -43.75)" style="fill:#efd2c3"/><rect width="29.37" height="29.37" style="fill:none"/><path d="M55,48.51a7.37,7.37,0,0,1,2,.28c3.1.9,5.67,4.12,6.25,7.83a10.16,10.16,0,0,1-3.19,9,10.76,10.76,0,0,1-7,2.69,8.43,8.43,0,0,1-4.82-1.45A9.47,9.47,0,0,1,44.5,58c.67-5,5.65-9.47,10.45-9.47m0-2c-5.8,0-11.63,5.25-12.44,11.2a11.5,11.5,0,0,0,4.54,10.84,10.34,10.34,0,0,0,6,1.8,12.74,12.74,0,0,0,8.34-3.2,12.14,12.14,0,0,0,3.84-10.84c-.65-4.14-3.51-8.24-7.67-9.44A9.31,9.31,0,0,0,55,46.51Z" transform="translate(-9.81 -43.75)" style="fill:#eab99d"/><rect x="29.37" width="29.37" height="29.37" style="fill:none"/></svg>